<mxfile host="app.diagrams.net" modified="2023-06-25T10:45:21.027Z" agent="Mozilla/5.0 (Macintosh; Intel Mac OS X 10_15_7) AppleWebKit/537.36 (KHTML, like Gecko) Chrome/114.0.0.0 Safari/537.36" etag="wtfCX9ciV3oKO1lqnWkE" version="21.5.0" type="github">
  <diagram id="C5RBs43oDa-KdzZeNtuy" name="Page-1">
    <mxGraphModel dx="1434" dy="796" grid="1" gridSize="10" guides="1" tooltips="1" connect="1" arrows="1" fold="1" page="1" pageScale="1" pageWidth="827" pageHeight="1169" math="0" shadow="0">
      <root>
        <mxCell id="WIyWlLk6GJQsqaUBKTNV-0" />
        <mxCell id="WIyWlLk6GJQsqaUBKTNV-1" parent="WIyWlLk6GJQsqaUBKTNV-0" />
        <mxCell id="WIyWlLk6GJQsqaUBKTNV-2" value="" style="rounded=0;html=1;jettySize=auto;orthogonalLoop=1;fontSize=11;endArrow=block;endFill=0;endSize=8;strokeWidth=1;shadow=0;labelBackgroundColor=none;edgeStyle=orthogonalEdgeStyle;" parent="WIyWlLk6GJQsqaUBKTNV-1" source="WIyWlLk6GJQsqaUBKTNV-3" target="WIyWlLk6GJQsqaUBKTNV-6" edge="1">
          <mxGeometry relative="1" as="geometry" />
        </mxCell>
        <mxCell id="WIyWlLk6GJQsqaUBKTNV-3" value="开始" style="rounded=1;whiteSpace=wrap;html=1;fontSize=12;glass=0;strokeWidth=1;shadow=0;" parent="WIyWlLk6GJQsqaUBKTNV-1" vertex="1">
          <mxGeometry x="160" y="80" width="120" height="40" as="geometry" />
        </mxCell>
        <mxCell id="cDRTMUAIXt_sZ_qSmFDY-3" style="edgeStyle=orthogonalEdgeStyle;rounded=0;orthogonalLoop=1;jettySize=auto;html=1;entryX=0.5;entryY=0;entryDx=0;entryDy=0;" edge="1" parent="WIyWlLk6GJQsqaUBKTNV-1" source="WIyWlLk6GJQsqaUBKTNV-6" target="WIyWlLk6GJQsqaUBKTNV-10">
          <mxGeometry relative="1" as="geometry" />
        </mxCell>
        <mxCell id="cDRTMUAIXt_sZ_qSmFDY-4" value="N" style="edgeLabel;html=1;align=center;verticalAlign=middle;resizable=0;points=[];" vertex="1" connectable="0" parent="cDRTMUAIXt_sZ_qSmFDY-3">
          <mxGeometry x="-0.25" y="-1" relative="1" as="geometry">
            <mxPoint as="offset" />
          </mxGeometry>
        </mxCell>
        <mxCell id="cDRTMUAIXt_sZ_qSmFDY-5" style="edgeStyle=orthogonalEdgeStyle;rounded=0;orthogonalLoop=1;jettySize=auto;html=1;exitX=1;exitY=0.5;exitDx=0;exitDy=0;entryX=0.5;entryY=0;entryDx=0;entryDy=0;" edge="1" parent="WIyWlLk6GJQsqaUBKTNV-1" source="WIyWlLk6GJQsqaUBKTNV-6" target="cDRTMUAIXt_sZ_qSmFDY-10">
          <mxGeometry relative="1" as="geometry">
            <mxPoint x="320" y="210" as="targetPoint" />
          </mxGeometry>
        </mxCell>
        <mxCell id="cDRTMUAIXt_sZ_qSmFDY-14" value="Y" style="edgeLabel;html=1;align=center;verticalAlign=middle;resizable=0;points=[];" vertex="1" connectable="0" parent="cDRTMUAIXt_sZ_qSmFDY-5">
          <mxGeometry x="-0.7667" y="-1" relative="1" as="geometry">
            <mxPoint as="offset" />
          </mxGeometry>
        </mxCell>
        <mxCell id="WIyWlLk6GJQsqaUBKTNV-6" value="重审授信&lt;br&gt;是否通过" style="rhombus;whiteSpace=wrap;html=1;shadow=0;fontFamily=Helvetica;fontSize=12;align=center;strokeWidth=1;spacing=6;spacingTop=-4;" parent="WIyWlLk6GJQsqaUBKTNV-1" vertex="1">
          <mxGeometry x="170" y="170" width="100" height="80" as="geometry" />
        </mxCell>
        <mxCell id="cDRTMUAIXt_sZ_qSmFDY-1" value="" style="edgeStyle=orthogonalEdgeStyle;rounded=0;orthogonalLoop=1;jettySize=auto;html=1;" edge="1" parent="WIyWlLk6GJQsqaUBKTNV-1" source="WIyWlLk6GJQsqaUBKTNV-10" target="cDRTMUAIXt_sZ_qSmFDY-0">
          <mxGeometry relative="1" as="geometry" />
        </mxCell>
        <mxCell id="cDRTMUAIXt_sZ_qSmFDY-2" value="N" style="edgeLabel;html=1;align=center;verticalAlign=middle;resizable=0;points=[];" vertex="1" connectable="0" parent="cDRTMUAIXt_sZ_qSmFDY-1">
          <mxGeometry x="-0.3" relative="1" as="geometry">
            <mxPoint as="offset" />
          </mxGeometry>
        </mxCell>
        <mxCell id="cDRTMUAIXt_sZ_qSmFDY-6" style="edgeStyle=orthogonalEdgeStyle;rounded=0;orthogonalLoop=1;jettySize=auto;html=1;entryX=0.5;entryY=0;entryDx=0;entryDy=0;" edge="1" parent="WIyWlLk6GJQsqaUBKTNV-1" source="WIyWlLk6GJQsqaUBKTNV-10" target="cDRTMUAIXt_sZ_qSmFDY-10">
          <mxGeometry relative="1" as="geometry">
            <mxPoint x="320" y="330" as="targetPoint" />
          </mxGeometry>
        </mxCell>
        <mxCell id="cDRTMUAIXt_sZ_qSmFDY-13" value="Y" style="edgeLabel;html=1;align=center;verticalAlign=middle;resizable=0;points=[];" vertex="1" connectable="0" parent="cDRTMUAIXt_sZ_qSmFDY-6">
          <mxGeometry x="-0.68" y="1" relative="1" as="geometry">
            <mxPoint as="offset" />
          </mxGeometry>
        </mxCell>
        <mxCell id="WIyWlLk6GJQsqaUBKTNV-10" value="直捞授信&lt;br&gt;是否通过" style="rhombus;whiteSpace=wrap;html=1;shadow=0;fontFamily=Helvetica;fontSize=12;align=center;strokeWidth=1;spacing=6;spacingTop=-4;" parent="WIyWlLk6GJQsqaUBKTNV-1" vertex="1">
          <mxGeometry x="170" y="290" width="100" height="80" as="geometry" />
        </mxCell>
        <mxCell id="cDRTMUAIXt_sZ_qSmFDY-8" value="" style="edgeStyle=orthogonalEdgeStyle;rounded=0;orthogonalLoop=1;jettySize=auto;html=1;entryX=0.5;entryY=0;entryDx=0;entryDy=0;" edge="1" parent="WIyWlLk6GJQsqaUBKTNV-1" source="cDRTMUAIXt_sZ_qSmFDY-0" target="cDRTMUAIXt_sZ_qSmFDY-27">
          <mxGeometry relative="1" as="geometry">
            <mxPoint x="220" y="530" as="targetPoint" />
          </mxGeometry>
        </mxCell>
        <mxCell id="cDRTMUAIXt_sZ_qSmFDY-9" value="N" style="edgeLabel;html=1;align=center;verticalAlign=middle;resizable=0;points=[];" vertex="1" connectable="0" parent="cDRTMUAIXt_sZ_qSmFDY-8">
          <mxGeometry x="-0.15" relative="1" as="geometry">
            <mxPoint as="offset" />
          </mxGeometry>
        </mxCell>
        <mxCell id="cDRTMUAIXt_sZ_qSmFDY-11" style="edgeStyle=orthogonalEdgeStyle;rounded=0;orthogonalLoop=1;jettySize=auto;html=1;entryX=0.5;entryY=0;entryDx=0;entryDy=0;" edge="1" parent="WIyWlLk6GJQsqaUBKTNV-1" source="cDRTMUAIXt_sZ_qSmFDY-0" target="cDRTMUAIXt_sZ_qSmFDY-10">
          <mxGeometry relative="1" as="geometry" />
        </mxCell>
        <mxCell id="cDRTMUAIXt_sZ_qSmFDY-12" value="Y" style="edgeLabel;html=1;align=center;verticalAlign=middle;resizable=0;points=[];" vertex="1" connectable="0" parent="cDRTMUAIXt_sZ_qSmFDY-11">
          <mxGeometry x="-0.4444" y="-1" relative="1" as="geometry">
            <mxPoint as="offset" />
          </mxGeometry>
        </mxCell>
        <mxCell id="cDRTMUAIXt_sZ_qSmFDY-0" value="新风控授信&lt;br&gt;是否通过" style="rhombus;whiteSpace=wrap;html=1;shadow=0;fontFamily=Helvetica;fontSize=12;align=center;strokeWidth=1;spacing=6;spacingTop=-4;" vertex="1" parent="WIyWlLk6GJQsqaUBKTNV-1">
          <mxGeometry x="170" y="410" width="100" height="80" as="geometry" />
        </mxCell>
        <mxCell id="cDRTMUAIXt_sZ_qSmFDY-19" value="" style="edgeStyle=orthogonalEdgeStyle;rounded=0;orthogonalLoop=1;jettySize=auto;html=1;entryX=0.5;entryY=0;entryDx=0;entryDy=0;" edge="1" parent="WIyWlLk6GJQsqaUBKTNV-1" source="cDRTMUAIXt_sZ_qSmFDY-10" target="cDRTMUAIXt_sZ_qSmFDY-21">
          <mxGeometry relative="1" as="geometry">
            <mxPoint x="380" y="680" as="targetPoint" />
          </mxGeometry>
        </mxCell>
        <mxCell id="cDRTMUAIXt_sZ_qSmFDY-20" value="Y" style="edgeLabel;html=1;align=center;verticalAlign=middle;resizable=0;points=[];" vertex="1" connectable="0" parent="cDRTMUAIXt_sZ_qSmFDY-19">
          <mxGeometry x="-0.1556" y="-1" relative="1" as="geometry">
            <mxPoint as="offset" />
          </mxGeometry>
        </mxCell>
        <mxCell id="cDRTMUAIXt_sZ_qSmFDY-31" style="edgeStyle=orthogonalEdgeStyle;rounded=0;orthogonalLoop=1;jettySize=auto;html=1;entryX=0.5;entryY=0;entryDx=0;entryDy=0;" edge="1" parent="WIyWlLk6GJQsqaUBKTNV-1" source="cDRTMUAIXt_sZ_qSmFDY-10" target="cDRTMUAIXt_sZ_qSmFDY-27">
          <mxGeometry relative="1" as="geometry" />
        </mxCell>
        <mxCell id="cDRTMUAIXt_sZ_qSmFDY-32" value="N" style="edgeLabel;html=1;align=center;verticalAlign=middle;resizable=0;points=[];" vertex="1" connectable="0" parent="cDRTMUAIXt_sZ_qSmFDY-31">
          <mxGeometry x="-0.1455" y="-1" relative="1" as="geometry">
            <mxPoint as="offset" />
          </mxGeometry>
        </mxCell>
        <mxCell id="cDRTMUAIXt_sZ_qSmFDY-10" value="首页大卡片&lt;br&gt;有效动态额度&lt;br&gt;是否大于0" style="rhombus;whiteSpace=wrap;html=1;shadow=0;fontFamily=Helvetica;fontSize=12;align=center;strokeWidth=1;spacing=6;spacingTop=-4;" vertex="1" parent="WIyWlLk6GJQsqaUBKTNV-1">
          <mxGeometry x="330" y="520" width="100" height="80" as="geometry" />
        </mxCell>
        <mxCell id="cDRTMUAIXt_sZ_qSmFDY-41" style="edgeStyle=orthogonalEdgeStyle;rounded=0;orthogonalLoop=1;jettySize=auto;html=1;entryX=0.5;entryY=0;entryDx=0;entryDy=0;" edge="1" parent="WIyWlLk6GJQsqaUBKTNV-1" source="cDRTMUAIXt_sZ_qSmFDY-18" target="cDRTMUAIXt_sZ_qSmFDY-38">
          <mxGeometry relative="1" as="geometry" />
        </mxCell>
        <mxCell id="cDRTMUAIXt_sZ_qSmFDY-18" value="展示动效" style="rounded=1;whiteSpace=wrap;html=1;shadow=0;strokeWidth=1;spacing=6;spacingTop=-4;" vertex="1" parent="WIyWlLk6GJQsqaUBKTNV-1">
          <mxGeometry x="370" y="860" width="110" height="40" as="geometry" />
        </mxCell>
        <mxCell id="cDRTMUAIXt_sZ_qSmFDY-22" style="edgeStyle=orthogonalEdgeStyle;rounded=0;orthogonalLoop=1;jettySize=auto;html=1;entryX=0.5;entryY=0;entryDx=0;entryDy=0;exitX=0;exitY=0.5;exitDx=0;exitDy=0;" edge="1" parent="WIyWlLk6GJQsqaUBKTNV-1" source="cDRTMUAIXt_sZ_qSmFDY-21" target="cDRTMUAIXt_sZ_qSmFDY-18">
          <mxGeometry relative="1" as="geometry" />
        </mxCell>
        <mxCell id="cDRTMUAIXt_sZ_qSmFDY-23" value="Y" style="edgeLabel;html=1;align=center;verticalAlign=middle;resizable=0;points=[];" vertex="1" connectable="0" parent="cDRTMUAIXt_sZ_qSmFDY-22">
          <mxGeometry x="-0.16" relative="1" as="geometry">
            <mxPoint as="offset" />
          </mxGeometry>
        </mxCell>
        <mxCell id="cDRTMUAIXt_sZ_qSmFDY-25" style="edgeStyle=orthogonalEdgeStyle;rounded=0;orthogonalLoop=1;jettySize=auto;html=1;entryX=0.5;entryY=0;entryDx=0;entryDy=0;exitX=1;exitY=0.5;exitDx=0;exitDy=0;" edge="1" parent="WIyWlLk6GJQsqaUBKTNV-1" source="cDRTMUAIXt_sZ_qSmFDY-21" target="cDRTMUAIXt_sZ_qSmFDY-24">
          <mxGeometry relative="1" as="geometry" />
        </mxCell>
        <mxCell id="cDRTMUAIXt_sZ_qSmFDY-26" value="N" style="edgeLabel;html=1;align=center;verticalAlign=middle;resizable=0;points=[];" vertex="1" connectable="0" parent="cDRTMUAIXt_sZ_qSmFDY-25">
          <mxGeometry x="-0.1008" relative="1" as="geometry">
            <mxPoint as="offset" />
          </mxGeometry>
        </mxCell>
        <mxCell id="cDRTMUAIXt_sZ_qSmFDY-21" value="首页大卡片&lt;br&gt;有效动态额度&lt;br&gt;是否从小变大" style="rhombus;whiteSpace=wrap;html=1;" vertex="1" parent="WIyWlLk6GJQsqaUBKTNV-1">
          <mxGeometry x="450" y="620" width="90" height="80" as="geometry" />
        </mxCell>
        <mxCell id="cDRTMUAIXt_sZ_qSmFDY-42" style="edgeStyle=orthogonalEdgeStyle;rounded=0;orthogonalLoop=1;jettySize=auto;html=1;entryX=0.5;entryY=0;entryDx=0;entryDy=0;exitX=0.5;exitY=1;exitDx=0;exitDy=0;" edge="1" parent="WIyWlLk6GJQsqaUBKTNV-1" source="cDRTMUAIXt_sZ_qSmFDY-24" target="cDRTMUAIXt_sZ_qSmFDY-38">
          <mxGeometry relative="1" as="geometry" />
        </mxCell>
        <mxCell id="cDRTMUAIXt_sZ_qSmFDY-24" value="不展示动效" style="rounded=1;whiteSpace=wrap;html=1;shadow=0;strokeWidth=1;spacing=6;spacingTop=-4;" vertex="1" parent="WIyWlLk6GJQsqaUBKTNV-1">
          <mxGeometry x="510" y="860" width="110" height="40" as="geometry" />
        </mxCell>
        <mxCell id="cDRTMUAIXt_sZ_qSmFDY-29" value="" style="edgeStyle=orthogonalEdgeStyle;rounded=0;orthogonalLoop=1;jettySize=auto;html=1;exitX=0;exitY=0.5;exitDx=0;exitDy=0;" edge="1" parent="WIyWlLk6GJQsqaUBKTNV-1" source="cDRTMUAIXt_sZ_qSmFDY-27" target="cDRTMUAIXt_sZ_qSmFDY-28">
          <mxGeometry relative="1" as="geometry" />
        </mxCell>
        <mxCell id="cDRTMUAIXt_sZ_qSmFDY-30" value="Y" style="edgeLabel;html=1;align=center;verticalAlign=middle;resizable=0;points=[];" vertex="1" connectable="0" parent="cDRTMUAIXt_sZ_qSmFDY-29">
          <mxGeometry x="-0.3333" relative="1" as="geometry">
            <mxPoint as="offset" />
          </mxGeometry>
        </mxCell>
        <mxCell id="cDRTMUAIXt_sZ_qSmFDY-35" style="edgeStyle=orthogonalEdgeStyle;rounded=0;orthogonalLoop=1;jettySize=auto;html=1;entryX=0.75;entryY=0;entryDx=0;entryDy=0;exitX=1;exitY=0.5;exitDx=0;exitDy=0;" edge="1" parent="WIyWlLk6GJQsqaUBKTNV-1" source="cDRTMUAIXt_sZ_qSmFDY-27" target="cDRTMUAIXt_sZ_qSmFDY-34">
          <mxGeometry relative="1" as="geometry">
            <Array as="points">
              <mxPoint x="323" y="660" />
            </Array>
          </mxGeometry>
        </mxCell>
        <mxCell id="cDRTMUAIXt_sZ_qSmFDY-36" value="N" style="edgeLabel;html=1;align=center;verticalAlign=middle;resizable=0;points=[];" vertex="1" connectable="0" parent="cDRTMUAIXt_sZ_qSmFDY-35">
          <mxGeometry x="-0.8539" relative="1" as="geometry">
            <mxPoint as="offset" />
          </mxGeometry>
        </mxCell>
        <mxCell id="cDRTMUAIXt_sZ_qSmFDY-27" value="是否只有&lt;br&gt;贷款超市额度" style="rhombus;whiteSpace=wrap;html=1;shadow=0;fontFamily=Helvetica;fontSize=12;align=center;strokeWidth=1;spacing=6;spacingTop=-4;" vertex="1" parent="WIyWlLk6GJQsqaUBKTNV-1">
          <mxGeometry x="170" y="620" width="100" height="80" as="geometry" />
        </mxCell>
        <mxCell id="cDRTMUAIXt_sZ_qSmFDY-37" style="edgeStyle=orthogonalEdgeStyle;rounded=0;orthogonalLoop=1;jettySize=auto;html=1;entryX=0.5;entryY=0;entryDx=0;entryDy=0;" edge="1" parent="WIyWlLk6GJQsqaUBKTNV-1" source="cDRTMUAIXt_sZ_qSmFDY-28" target="cDRTMUAIXt_sZ_qSmFDY-33">
          <mxGeometry relative="1" as="geometry" />
        </mxCell>
        <mxCell id="cDRTMUAIXt_sZ_qSmFDY-44" value="Y" style="edgeLabel;html=1;align=center;verticalAlign=middle;resizable=0;points=[];" vertex="1" connectable="0" parent="cDRTMUAIXt_sZ_qSmFDY-37">
          <mxGeometry x="-0.16" y="-1" relative="1" as="geometry">
            <mxPoint as="offset" />
          </mxGeometry>
        </mxCell>
        <mxCell id="cDRTMUAIXt_sZ_qSmFDY-45" style="edgeStyle=orthogonalEdgeStyle;rounded=0;orthogonalLoop=1;jettySize=auto;html=1;entryX=0.5;entryY=0;entryDx=0;entryDy=0;" edge="1" parent="WIyWlLk6GJQsqaUBKTNV-1" source="cDRTMUAIXt_sZ_qSmFDY-28" target="cDRTMUAIXt_sZ_qSmFDY-34">
          <mxGeometry relative="1" as="geometry" />
        </mxCell>
        <mxCell id="cDRTMUAIXt_sZ_qSmFDY-46" value="N" style="edgeLabel;html=1;align=center;verticalAlign=middle;resizable=0;points=[];" vertex="1" connectable="0" parent="cDRTMUAIXt_sZ_qSmFDY-45">
          <mxGeometry x="-0.5459" y="-2" relative="1" as="geometry">
            <mxPoint as="offset" />
          </mxGeometry>
        </mxCell>
        <mxCell id="cDRTMUAIXt_sZ_qSmFDY-28" value="贷款超市&lt;br&gt;额度&lt;br&gt;是否由小变大" style="rhombus;whiteSpace=wrap;html=1;shadow=0;fontFamily=Helvetica;fontSize=12;align=center;strokeWidth=1;spacing=6;spacingTop=-4;" vertex="1" parent="WIyWlLk6GJQsqaUBKTNV-1">
          <mxGeometry x="100" y="730" width="100" height="80" as="geometry" />
        </mxCell>
        <mxCell id="cDRTMUAIXt_sZ_qSmFDY-39" style="edgeStyle=orthogonalEdgeStyle;rounded=0;orthogonalLoop=1;jettySize=auto;html=1;entryX=0.5;entryY=0;entryDx=0;entryDy=0;exitX=0.5;exitY=1;exitDx=0;exitDy=0;" edge="1" parent="WIyWlLk6GJQsqaUBKTNV-1" source="cDRTMUAIXt_sZ_qSmFDY-33" target="cDRTMUAIXt_sZ_qSmFDY-38">
          <mxGeometry relative="1" as="geometry" />
        </mxCell>
        <mxCell id="cDRTMUAIXt_sZ_qSmFDY-33" value="展示动效" style="rounded=1;whiteSpace=wrap;html=1;shadow=0;strokeWidth=1;spacing=6;spacingTop=-4;" vertex="1" parent="WIyWlLk6GJQsqaUBKTNV-1">
          <mxGeometry x="95" y="860" width="110" height="40" as="geometry" />
        </mxCell>
        <mxCell id="cDRTMUAIXt_sZ_qSmFDY-40" style="edgeStyle=orthogonalEdgeStyle;rounded=0;orthogonalLoop=1;jettySize=auto;html=1;entryX=0.5;entryY=0;entryDx=0;entryDy=0;" edge="1" parent="WIyWlLk6GJQsqaUBKTNV-1" source="cDRTMUAIXt_sZ_qSmFDY-34" target="cDRTMUAIXt_sZ_qSmFDY-38">
          <mxGeometry relative="1" as="geometry" />
        </mxCell>
        <mxCell id="cDRTMUAIXt_sZ_qSmFDY-34" value="不展示动效" style="rounded=1;whiteSpace=wrap;html=1;shadow=0;strokeWidth=1;spacing=6;spacingTop=-4;" vertex="1" parent="WIyWlLk6GJQsqaUBKTNV-1">
          <mxGeometry x="240" y="860" width="110" height="40" as="geometry" />
        </mxCell>
        <mxCell id="cDRTMUAIXt_sZ_qSmFDY-38" value="结束" style="rounded=1;whiteSpace=wrap;html=1;fontSize=12;glass=0;strokeWidth=1;shadow=0;" vertex="1" parent="WIyWlLk6GJQsqaUBKTNV-1">
          <mxGeometry x="280" y="980" width="120" height="40" as="geometry" />
        </mxCell>
      </root>
    </mxGraphModel>
  </diagram>
</mxfile>
